<?xml version="1.0" encoding="UTF-8"?>
<svg id="a" data-name="Capa 3" xmlns="http://www.w3.org/2000/svg" width="1156.928" height="162.774" viewBox="0 0 1156.928 162.774">
  <g id="b" data-name="Logotipo - Dark">
    <g id="c" data-name="Logo">
      <path d="M838.216,24.779c-12.915,0-23.029,7.871-28.849,17.236h-.358v-17.236h-14.654v97.988h14.654v-55.065c0-18.151,13.107-29.402,28.098-29.402.333,0,1.942,0,2.247.027l4.932-12.467c-1.801-.749-3.298-1.081-6.069-1.081h0Z" fill="#fff"/>
      <path d="M233.602,48.543c-3.712-7.221-9.011-13.087-15.716-17.314-6.736-4.278-14.725-6.452-23.756-6.452-5.643,0-10.67.86-14.968,2.538-4.025,1.588-11.105,6.503-13.41,11.307l-.364.779h-5.552l-7.494-14.624h-21.764l15.14,31.271v106.727h21.258v-50.618l2.235,1.729c1.517,1.183,3.115,2.215,4.804,3.085,5.795,3.135,12.49,4.703,19.944,4.703,8.981,0,17.031-2.144,23.797-6.321,6.746-4.177,12.096-10.012,15.848-17.274,3.691-7.241,5.583-15.544,5.583-24.687,0-9.284-1.891-17.618-5.583-24.849ZM214.275,88.754c-2.154,4.318-5.117,7.565-8.869,9.952-3.782,2.377-8.01,3.56-12.976,3.56-5.077,0-9.325-1.183-13.117-3.56-3.782-2.387-6.685-5.603-8.779-9.911-2.134-4.318-3.206-9.517-3.206-15.403,0-6.048,1.072-11.297,3.206-15.696,2.093-4.278,4.986-7.565,8.779-9.962,3.793-2.397,8.081-3.57,13.117-3.57,4.945,0,9.193,1.173,12.976,3.57,3.752,2.397,6.695,5.653,8.869,10.012,2.185,4.369,3.287,9.618,3.287,15.646,0,5.876-1.072,11.034-3.287,15.362Z" fill="#fff"/>
      <path d="M334.19,48.038c-4.066-7.322-9.618-13.097-16.515-17.132-6.938-4.076-14.897-6.129-23.645-6.129-8.819,0-16.788,2.053-23.827,6.088-7.069,4.076-12.672,9.891-16.728,17.284-4.005,7.322-6.028,16.121-6.028,25.931,0,9.679,1.972,18.315,5.926,25.668,3.995,7.393,9.577,13.198,16.576,17.253,6.948,4.035,14.948,6.088,23.696,6.088s16.748-2.053,23.736-6.088c6.978-4.055,12.611-9.85,16.687-17.243,4.086-7.342,6.139-16.03,6.139-25.84,0-9.881-2.013-18.588-6.018-25.88ZM314.732,90.605c-2.356,4.399-5.299,7.626-9.001,9.78-3.732,2.134-7.706,3.176-12.086,3.176s-8.253-1.021-11.954-3.176c-3.641-2.154-6.543-5.34-8.88-9.759-2.296-4.45-3.459-10.043-3.459-16.707,0-6.725,1.163-12.379,3.499-16.728,2.276-4.339,5.198-7.484,8.96-9.679,3.833-2.174,7.838-3.256,12.217-3.256,4.318,0,8.212,1.062,11.914,3.236,3.681,2.195,6.584,5.34,8.88,9.699,2.316,4.349,3.489,9.992,3.489,16.728,0,6.665-1.203,12.237-3.58,16.687Z" fill="#fff"/>
      <rect x="352.294" width="20.204" height="123.168" fill="#fff"/>
      <path d="M470.398,47.977c-4.045-7.282-9.577-13.077-16.515-17.112-6.857-4.035-14.786-6.088-23.554-6.088s-16.717,2.043-23.746,6.078c-7.029,4.045-12.632,9.861-16.647,17.223-4.005,7.292-6.017,16.05-6.017,25.87,0,9.638,1.972,18.235,5.906,25.577,3.964,7.352,9.547,13.147,16.535,17.203,6.907,4.035,14.867,6.088,23.635,6.088s16.687-2.053,23.665-6.088c6.948-4.025,12.551-9.81,16.626-17.193,4.076-7.302,6.119-15.989,6.119-25.759,0-9.85-2.002-18.538-6.007-25.799ZM451.01,90.433c-2.377,4.349-5.289,7.545-8.991,9.689-3.732,2.174-7.717,3.206-12.025,3.206-4.379,0-8.273-1.031-11.934-3.176-3.631-2.134-6.503-5.33-8.829-9.709-2.296-4.43-3.459-10.002-3.459-16.667,0-6.705,1.163-12.318,3.459-16.657,2.286-4.349,5.198-7.454,8.971-9.628,3.803-2.205,7.787-3.267,12.126-3.267s8.242,1.062,11.904,3.226c3.681,2.185,6.543,5.32,8.839,9.668,2.316,4.298,3.489,9.952,3.489,16.657,0,6.624-1.193,12.227-3.55,16.657Z" fill="#fff"/>
      <polygon points="55.55 .175 0 122.75 25.97 122.75 65.868 34.939 71.31 34.939 110.967 122.736 136.828 122.736 81.292 .175 55.55 .175" fill="#fff"/>
      <rect x="508.302" y=".175" width="74.557" height="13.667" fill="#fff"/>
      <polygon points="522.687 109.078 582.86 109.078 582.86 122.745 508.301 122.745 508.301 54.241 577.895 54.241 577.895 67.924 522.687 67.924 522.687 109.078" fill="#fff"/>
      <path d="M663.119,28.939c-5.138-2.773-9.977-4.159-16.856-4.159-6.66,0-12.804,1.603-18.269,4.785-3.724,2.147-6.933,5.463-8.565,9.433h-3.228l-6.048-13.377h-15.028l6.144,13.377,3.779,8.538v75.215h14.654v-54.12c0-6.553,1.086-12.071,3.18-16.368,2.147-4.295,4.976-7.448,8.7-9.704,3.67-2.229,7.883-3.371,12.478-3.371,6.852,0,11.909,1.957,15.497,5.953,3.615,4.05,5.465,10.466,5.465,19.084v58.525h14.654v-59.884c0-8.563-1.441-15.713-4.295-21.26-2.909-5.6-7.015-9.868-12.262-12.669h0Z" fill="#fff"/>
      <path d="M775.833,47.057c-3.347-6.574-8.192-11.974-14.412-16.07-6.321-4.116-14.139-6.21-23.311-6.21-2.255,0-4.48.142-6.624.445-4.167.526-8.07,1.608-11.732,3.196-1.689.688-3.256,1.507-4.794,2.417-6.776,4.015-12.106,9.78-15.797,17.102-3.742,7.271-5.583,15.908-5.583,25.658,0,.455,0,.94.02,1.426.081,4.956.698,9.588,1.76,13.906.93,3.712,2.215,7.16,3.873,10.356,3.762,7.383,9.021,13.198,15.595,17.274,6.604,4.096,14.331,6.2,23.15,6.2,12.571,0,23.595-3.904,31.787-9.77l-.516-1.163-4.531-10.023c-5.926,4.642-12.834,8.596-26.74,8.596-5.279,0-10.326-1.325-14.988-3.944-4.662-2.64-8.465-6.715-11.317-12.085-.748-1.376-1.406-3.085-1.972-5.077-1.082-3.519-1.81-7.919-2.124-12.713l-.091-1.558h72.938l.081-.273c.222-1.011.222-6.098.222-6.108,0-7.777-1.658-15.018-4.895-21.582ZM707.335,64.239l.212-1.456.081-.506c.03-.364.081-.738.152-1.011,2.134-14.907,13.461-24.171,29.582-24.171h.435c8.354,0,15.109,2.478,20.631,7.565,4.703,4.389,7.787,8.718,8.556,16.677l.354,2.903h-60.003Z" fill="#fff"/>
      <path d="M1072.925,47.057c-3.347-6.574-8.192-11.974-14.412-16.07-6.321-4.116-14.139-6.21-23.321-6.21-2.245,0-4.47.142-6.624.445-4.157.526-8.06,1.608-11.732,3.196-1.679.688-3.246,1.507-4.794,2.417-6.776,4.015-12.096,9.78-15.787,17.102-3.742,7.271-5.593,15.908-5.593,25.658,0,.455,0,.94.03,1.426.071,4.956.698,9.588,1.75,13.906.94,3.712,2.215,7.16,3.873,10.356,3.772,7.383,9.031,13.198,15.605,17.274,6.594,4.096,14.321,6.2,23.15,6.2,12.571,0,23.595-3.904,31.787-9.77l-.516-1.163-4.531-10.023c-5.926,4.642-12.834,8.596-26.74,8.596-5.289,0-10.336-1.325-14.998-3.944-4.652-2.64-8.455-6.715-11.317-12.085-.748-1.376-1.406-3.085-1.972-5.077-1.072-3.519-1.8-7.919-2.124-12.713l-.091-1.558h72.948l.071-.273c.233-1.011.233-6.098.233-6.108,0-7.777-1.658-15.018-4.895-21.582ZM1004.417,64.239l.222-1.456.071-.506c.04-.364.091-.738.152-1.011,2.134-14.907,13.471-24.171,29.592-24.171h.425c8.354,0,15.109,2.478,20.631,7.565,4.703,4.389,7.787,8.718,8.566,16.677l.354,2.903h-60.013Z" fill="#fff"/>
      <rect x="960.539" y="24.779" width="14.381" height="97.972" fill="#fff"/>
      <rect x="960.539" y=".175" width="14.381" height="13.698" fill="#fff"/>
      <path d="M1152.383,78.433c-2.957-3.601-6.906-6.321-11.732-8.083-2.658-.986-5.452-1.864-8.295-2.6-2.115-.59-4.461-1.143-7.188-1.696-4.339-.778-8.051-1.814-11.029-3.078l-.346-.146c-.185-.077-.367-.155-.528-.235-3.159-1.48-5.552-3.209-7.115-5.142-1.628-1.978-2.42-4.186-2.418-6.729.194-5.008,3.025-8.964,7.974-11.142,2.659-1.184,5.789-1.785,9.298-1.785,13.778,0,20.778,4.052,26.291,8.433l.694.551,5.112-11.297-.458-.33c-8.484-6.146-19.441-9.612-30.83-9.758l-.305-.011-.492.011c-5.955.111-11.236,1.229-15.702,3.328-4.753,2.269-8.404,5.44-10.853,9.419-2.461,3.936-3.71,8.604-3.71,13.871,0,4.075.828,7.646,2.461,10.619,1.644,2.973,3.947,5.513,6.845,7.543,2.615,1.835,5.575,3.31,8.857,4.409.319.146.64.246,1.004.357,3.778,1.188,7.432,2.117,11.186,2.847,2.297.392,4.241.783,5.952,1.19,2.333.53,4.564,1.168,6.622,1.892,3.389,1.236,5.966,2.936,7.662,5.058,1.712,2.117,2.581,5.197,2.581,9.151,0,.713-.036,1.295-.112,1.839-.055.41-.137.819-.248,1.35l-.043.235c-1.741,6.772-8.921,11.078-18.752,11.233-.754.023-1.475-.004-2.206-.03l-.729-.023c-2.299-.111-4.37-.332-6.326-.671-.621-.112-1.238-.227-1.908-.38-.285-.052-.585-.105-.847-.177-1.072-.248-2.128-.551-3.25-.933l-.218-.077c-1.095-.396-2.039-.77-2.941-1.172-.152-.087-.303-.155-.54-.259-.369-.177-.722-.36-1.074-.548l-.781-.407c-2.349-1.334-4.257-2.786-5.488-3.76l-.694-.548-5.108,11.295.457.332c8.375,6.055,19.153,9.526,30.345,9.772l1.286-.041c6.414-.084,12.066-1.279,16.797-3.551,4.903-2.344,8.738-5.714,11.4-10.02,2.647-4.293,3.988-9.249,3.988-14.728,0-6.599-1.53-11.773-4.544-15.378h0Z" fill="#fff"/>
      <path d="M930.346,24.777l-6.068,13.41h-3.327c-2.063-2.478-4.349-4.662-7.009-6.483-6.634-4.602-14.725-6.928-24.04-6.928-9.588,0-17.921,2.276-24.839,6.705-6.857,4.42-12.207,10.387-15.878,17.698-3.61,7.302-5.471,15.484-5.471,24.302s1.831,17.001,5.391,24.292c3.58,7.322,8.799,13.289,15.554,17.739,5.714,3.732,12.389,5.896,19.903,6.462.576.071,1.173.121,1.77.121.849.051,1.689.091,2.559.091,1.537,0,3.004-.051,4.45-.212,3.621-.313,7.049-1.001,10.336-2.114,3.499-1.183,6.766-2.801,9.78-4.865,2.852-1.972,5.31-4.258,7.494-6.827l1.284-1.669v14.31c0,1.638-.131,3.145-.374,4.602l-.02.142s-.03.05-.03.061c-.121.839-.283,1.659-.465,2.447-.374,1.588-.86,3.085-1.456,4.48-.455,1.042-.971,2.033-1.547,2.973-.587.94-1.234,1.831-1.942,2.66-4.733,5.542-12.348,8.677-22.765,9.345-.566.05-1.123.091-1.74.111h-.152c-.566.03-1.123.071-1.699.071-4.43,0-8.728-.829-12.773-2.447l-1.173-.526-5.391,11.954c.395.152.799.293,1.214.435,4.207,1.456,8.789,2.346,13.704,2.68,1.426.061,2.872.131,4.329.131,5.097,0,9.679-.526,13.754-1.446.091-.04.182-.051.243-.051,3.469-.769,6.543-1.861,9.325-3.145.081-.051.131-.071.182-.101.142-.061.253-.121.395-.202.131-.04.273-.131.384-.182,13.431-5.997,21.754-19.63,21.754-34.315V48.392l.435-.971,10.235-22.644h-16.313ZM922.235,84.345c0,8.202-3.833,15.696-10.255,20.045l-.182.121c-.233.142-.445.273-.668.425l-.202.131c-5.047,3.186-11.165,4.804-18.204,4.804h-.293c-6.786-.051-12.652-1.699-17.476-4.895-2.468-1.618-4.652-3.54-6.553-5.744-.475-.556-.941-1.123-1.375-1.709-.212-.303-.435-.597-.647-.9-1.062-1.517-2.003-3.135-2.832-4.865-.981-2.073-1.78-4.237-2.397-6.493-1.021-3.752-1.547-7.757-1.547-11.964,0-4.157.526-8.101,1.547-11.792.617-2.225,1.416-4.359,2.397-6.382.485-1.021,1.021-2.013,1.598-2.963.384-.637.789-1.254,1.204-1.851,1.052-1.507,2.215-2.913,3.499-4.207,1.537-1.547,3.236-2.943,5.097-4.187,4.915-3.327,10.983-5.006,18.002-5.006,7.302,0,13.502,1.608,18.376,4.804,1.628,1.032,3.155,2.235,4.551,3.57l.071.071.131.121c.051.051.101.101.141.152.051.05.091.101.132.142l.071.101c3.752,4.167,5.714,9.497,5.815,15.868v22.603Z" fill="#fff"/>
      <path d="M931.176,26.051l-6.068,13.41h-4.753l-.384-.455c-2.124-2.538-4.329-4.592-6.756-6.26-6.402-4.43-14.24-6.695-23.311-6.695-9.294,0-17.426,2.195-24.151,6.503-6.655,4.288-11.843,10.083-15.423,17.203-3.55,7.16-5.34,15.14-5.34,23.726s1.77,16.576,5.269,23.726c3.469,7.12,8.556,12.915,15.099,17.233,5.512,3.6,12.015,5.714,19.357,6.27.617.081,1.153.101,1.689.101.829.061,1.649.091,2.488.091,1.679,0,3.044-.061,4.328-.192,3.611-.313,6.887-.991,10.043-2.053,3.358-1.143,6.543-2.721,9.466-4.713,2.68-1.861,5.057-4.025,7.251-6.604l2.255-2.64v16.111c0,1.638-.131,3.145-.374,4.602l-.02.142s-.03.05-.03.061c-.121.839-.283,1.659-.465,2.447-.364,1.588-.849,3.085-1.456,4.48-.445,1.042-.961,2.033-1.547,2.973-.577.94-1.224,1.831-1.942,2.66-4.733,5.542-12.348,8.677-22.765,9.345-.566.05-1.123.091-1.74.111h-.152c-.566.03-1.123.071-1.699.071-4.43,0-8.728-.829-12.773-2.447l-4.824,10.7c4.086,1.396,8.526,2.265,13.238,2.569,1.305.061,2.801.121,4.268.121,4.774,0,9.284-.465,13.41-1.386.132-.051.273-.081.394-.091,3.125-.698,6.058-1.699,8.89-2.994.081-.05.172-.101.273-.152l.506-.253.061-.03c.081-.03.172-.071.222-.101,12.763-5.694,21.006-18.71,21.006-33.152V48.129l9.962-22.078h-13.502ZM922.235,84.345c0,8.202-3.833,15.696-10.255,20.045l-.182.121c-.233.131-.445.273-.668.425l-.202.131c-5.047,3.186-11.165,4.804-18.204,4.804h-.293c-6.786-.051-12.652-1.699-17.476-4.895-2.468-1.618-4.652-3.54-6.553-5.744-.475-.556-.93-1.123-1.375-1.709-.212-.303-.435-.597-.647-.9-1.052-1.517-1.992-3.135-2.822-4.865-.981-2.073-1.78-4.237-2.407-6.493-1.021-3.752-1.547-7.757-1.547-11.964,0-4.157.526-8.101,1.547-11.792.627-2.225,1.426-4.359,2.407-6.382.486-1.021,1.021-2.013,1.588-2.963.384-.637.789-1.254,1.204-1.851,1.052-1.507,2.225-2.913,3.499-4.207,1.537-1.547,3.236-2.943,5.097-4.187,4.915-3.327,10.983-5.006,18.002-5.006,7.302,0,13.502,1.608,18.376,4.804,1.628,1.032,3.155,2.235,4.551,3.57l.071.071.131.121c.051.051.101.101.141.152.04.05.081.101.121.142l.081.101c3.752,4.167,5.714,9.497,5.815,15.868v22.603Z" fill="#fff"/>
    </g>
  </g>
</svg>